<?xml version="1.0" encoding="utf-8"?>
<!-- Generator: Adobe Illustrator 24.0.1, SVG Export Plug-In . SVG Version: 6.00 Build 0)  -->
<svg version="1.1" id="Layer_1" xmlns="http://www.w3.org/2000/svg" xmlns:xlink="http://www.w3.org/1999/xlink" x="0px" y="0px"
	 viewBox="0 0 355.9 81.9" style="enable-background:new 0 0 355.9 81.9;" xml:space="preserve">
<style type="text/css">
	.st0{fill:#333333;}
	.st1{fill:#606060;}
</style>
<g id="XMLID_37_">
	<path id="XMLID_45_" class="st0" d="M136.5,57.8c0-0.6-0.7-0.9-1.2-0.5c-0.2,0.2-0.4,0.4-0.7,0.6c-0.7,0.6-1.4,1.1-2.1,1.5
		c-0.9,0.5-1.9,0.9-2.8,1.1c-1,0.2-2.1,0.4-3.2,0.4c-2.8,0-5.1-1-6.9-3c-1.9-2-2.8-4.6-2.8-7.8c0-2.5,0.5-4.6,1.4-6.2s2.3-2.9,4-3.8
		s3.9-1.6,6.4-2s5.2-0.7,7.9-0.9V37c0-1.9-0.7-3.2-2-3.9c-1.3-0.7-3.2-1.1-5.8-1.1c-1.5,0-3.2,0.3-4.9,1c-1.7,0.6-3,1.1-3.7,1.5
		h-0.9v-7.8c0-0.3,0.2-0.6,0.5-0.7c1-0.3,2.4-0.6,4.3-0.9c2.2-0.4,4.4-0.6,6.6-0.6c5.3,0,9.1,1,11.4,2.9s3.5,5,3.5,9.1v22.7
		c0,0.4-0.3,0.7-0.7,0.7H137c-0.4,0-0.7-0.3-0.7-0.7v-1.4L136.5,57.8L136.5,57.8z M136.5,50.5v-6.1c0-0.4-0.4-0.8-0.8-0.7
		c-1,0.1-2.1,0.3-3.3,0.4c-1.5,0.2-2.6,0.5-3.3,0.7c-0.9,0.3-1.6,0.9-2.1,1.5c-0.5,0.7-0.7,1.5-0.7,2.6c0,0.7,0.1,1.3,0.2,1.7
		c0.1,0.4,0.4,0.9,0.8,1.3c0.4,0.4,0.9,0.7,1.4,0.9c0.5,0.2,1.4,0.3,2.6,0.3c0.9,0,1.9-0.2,2.8-0.7c0.9-0.4,1.6-0.9,2.3-1.6
		C136.4,50.9,136.5,50.7,136.5,50.5z"/>
	<path id="XMLID_44_" class="st0" d="M184.5,42.2c0,2.8-0.4,5.4-1.1,7.8c-0.7,2.3-1.7,4.3-2.9,5.8c-1.2,1.6-2.6,2.8-4.2,3.6
		c-1.6,0.8-3.2,1.2-5,1.2c-1.6,0-3-0.2-4.2-0.6c-0.8-0.3-1.6-0.7-2.5-1.1c-0.5-0.3-1,0.1-1,0.6v12.3c0,0.4-0.3,0.7-0.7,0.7H155
		c-0.4,0-0.7-0.3-0.7-0.7V26.2c0-0.4,0.3-0.7,0.7-0.7h7.9c0.4,0,0.7,0.3,0.7,0.7v1.3c0,0.6,0.7,0.9,1.2,0.5c1.1-0.9,2.1-1.6,3.2-2.2
		c1.5-0.8,3.2-1.3,5.1-1.3c3.6,0,6.4,1.6,8.4,4.7C183.5,32.4,184.5,36.7,184.5,42.2z M174.9,42.4c0-3.3-0.5-5.8-1.4-7.3
		c-1-1.5-2.5-2.3-4.6-2.3c-0.9,0-1.8,0.2-2.7,0.5c-0.8,0.3-1.6,0.7-2.3,1.1c-0.2,0.1-0.3,0.4-0.3,0.6v16.4c0,0.3,0.2,0.6,0.4,0.7
		c0.5,0.2,1,0.3,1.5,0.4c0.7,0.1,1.4,0.1,2.1,0.1c2.5,0,4.3-0.9,5.5-2.6C174.3,48.3,174.9,45.8,174.9,42.4z"/>
	<path id="XMLID_43_" class="st0" d="M198.9,20.5h-6.1c-1,0-1.9-0.8-1.9-1.9V14c0-1,0.8-1.9,1.9-1.9h6.1c1,0,1.9,0.8,1.9,1.9v4.6
		C200.7,19.7,199.9,20.5,198.9,20.5z M199.8,59.9h-7.9c-0.4,0-0.7-0.3-0.7-0.7v-33c0-0.4,0.3-0.7,0.7-0.7h7.9c0.4,0,0.7,0.3,0.7,0.7
		v33C200.5,59.5,200.2,59.9,199.8,59.9z"/>
	<path id="XMLID_42_" class="st0" d="M217.8,59.9h-7.9c-0.4,0-0.7-0.3-0.7-0.7V12.9c0-0.4,0.3-0.7,0.7-0.7h7.9
		c0.4,0,0.7,0.3,0.7,0.7v46.3C218.5,59.5,218.2,59.9,217.8,59.9z"/>
	<path id="XMLID_41_" class="st0" d="M244.8,57.8c0-0.6-0.7-0.9-1.2-0.5c-0.2,0.2-0.4,0.4-0.7,0.6c-0.7,0.6-1.4,1.1-2.1,1.5
		c-0.9,0.5-1.9,0.9-2.8,1.1c-1,0.2-2.1,0.4-3.2,0.4c-2.8,0-5.1-1-6.9-3c-1.9-2-2.8-4.6-2.8-7.8c0-2.5,0.5-4.6,1.4-6.2s2.3-2.9,4-3.8
		s3.9-1.6,6.4-2s5.2-0.7,7.9-0.9V37c0-1.9-0.7-3.2-2-3.9c-1.3-0.7-3.2-1.1-5.8-1.1c-1.5,0-3.2,0.3-4.9,1c-1.7,0.6-3,1.1-3.7,1.5
		h-0.9v-7.8c0-0.3,0.2-0.6,0.5-0.7c1-0.3,2.4-0.6,4.3-0.9c2.2-0.4,4.4-0.6,6.6-0.6c5.3,0,9.1,1,11.4,2.9c2.3,1.9,3.5,5,3.5,9.1v22.7
		c0,0.4-0.3,0.7-0.7,0.7h-7.8c-0.4,0-0.7-0.3-0.7-0.7v-1.4L244.8,57.8L244.8,57.8z M244.8,50.5v-6.1c0-0.4-0.4-0.8-0.8-0.7
		c-1,0.1-2.1,0.3-3.3,0.4c-1.5,0.2-2.6,0.5-3.3,0.7c-0.9,0.3-1.6,0.9-2.1,1.5c-0.5,0.7-0.7,1.5-0.7,2.6c0,0.7,0.1,1.3,0.2,1.7
		c0.1,0.4,0.4,0.9,0.8,1.3s0.9,0.7,1.4,0.9c0.5,0.2,1.4,0.3,2.6,0.3c0.9,0,1.9-0.2,2.8-0.7c0.9-0.4,1.6-0.9,2.3-1.6
		C244.8,50.9,244.8,50.7,244.8,50.5z"/>
	<path id="XMLID_40_" class="st0" d="M276.3,45.5l5.8-19.5c0.1-0.3,0.4-0.5,0.7-0.5h8c0.5,0,0.8,0.5,0.7,0.9L275.9,72
		c-0.1,0.3-0.4,0.5-0.7,0.5h-8.6c-0.5,0-0.8-0.5-0.7-0.9l4.2-11.7c0.1-0.1,0.1-0.3,0-0.5l-10.9-33c-0.2-0.5,0.2-0.9,0.7-0.9h8.3
		c0.3,0,0.6,0.2,0.7,0.5l6.1,19.5C275.2,46.1,276.1,46.1,276.3,45.5z"/>
	<path id="XMLID_39_" class="st0" d="M324.8,44.7H305c-0.4,0-0.8,0.4-0.7,0.8c0.3,2.3,1.1,4.1,2.5,5.4c1.6,1.4,3.9,2.1,7,2.1
		c2,0,3.9-0.4,5.7-1.3c1.8-0.8,3.3-1.7,4.4-2.7h1v8.4c0,0.3-0.2,0.5-0.4,0.7c-1.9,0.9-3.8,1.6-5.5,2c-1.9,0.4-3.9,0.7-6.2,0.7
		c-5.8,0-10.3-1.6-13.4-4.7s-4.6-7.5-4.6-13.3c0-5.7,1.5-10.2,4.4-13.5c2.9-3.3,7-5,12.1-5c4.7,0,8.3,1.4,10.6,4.2
		c2.4,2.8,3.6,6.9,3.6,12.2v3.2C325.5,44.4,325.2,44.7,324.8,44.7z M315.5,38.2c0.4,0,0.7-0.3,0.7-0.7c-0.1-1.9-0.6-3.4-1.4-4.5
		c-0.9-1.2-2.3-1.7-4.3-1.7c-1.8,0-3.3,0.6-4.4,1.7c-1,1-1.7,2.5-1.9,4.5c0,0.4,0.3,0.8,0.7,0.8L315.5,38.2L315.5,38.2z"/>
	<path id="XMLID_38_" class="st0" d="M353.1,36h-0.8c-0.4-0.2-1-0.3-1.9-0.4s-1.6-0.1-2.2-0.1c-1.3,0-2.5,0.1-3.5,0.3
		c-0.9,0.2-1.8,0.5-2.8,0.9c-0.3,0.1-0.5,0.4-0.5,0.7v21.9c0,0.4-0.3,0.7-0.7,0.7h-7.9c-0.4,0-0.7-0.3-0.7-0.7v-33
		c0-0.4,0.3-0.7,0.7-0.7h7.9c0.4,0,0.7,0.3,0.7,0.7V29c0,0.6,0.7,0.9,1.2,0.5c1.5-1.4,2.9-2.4,4.1-3c1.5-0.7,2.9-1,4.2-1
		c0.3,0,0.7,0,1.1,0s0.8,0.1,1.1,0.1V36L353.1,36z"/>
</g>
<g id="XMLID_7_">
	<g id="XMLID_8_">
		<path id="XMLID_9_" class="st1" d="M80.2,54.2l-4,5.2c-1.7,2.2-4.3,3.5-7,3.5H28.4L13.3,27c-1.1-2.6-0.7-5.6,1-7.8l3.3-4.4
			l16.5,39.4L80.2,54.2L80.2,54.2z"/>
	</g>
	<path id="XMLID_1_" class="st1" d="M80.7,48.3H38.4l-15-35.8c-1.6-3.8,1.2-8,5.3-8H71l15,35.8C87.6,44.1,84.8,48.3,80.7,48.3z"/>
	<g id="XMLID_10_">
		<path id="XMLID_11_" class="st1" d="M69,68.7l-4,5.2c-1.7,2.2-4.3,3.5-7,3.5H22.5c-2.6,0-4.9-1.5-5.9-3.9L3.1,41.1
			c-1.2-2.9-0.8-6.3,1.1-8.8l3-3.9l16.9,40.3L69,68.7L69,68.7z"/>
	</g>
</g>
</svg>
