<?xml version="1.0" encoding="utf-8"?>
<!-- Generator: Adobe Illustrator 24.0.1, SVG Export Plug-In . SVG Version: 6.00 Build 0)  -->
<svg version="1.1" id="Layer_1" xmlns="http://www.w3.org/2000/svg" xmlns:xlink="http://www.w3.org/1999/xlink" x="0px" y="0px"
	 viewBox="0 0 355.9 81.9" style="enable-background:new 0 0 355.9 81.9;" xml:space="preserve">
<style type="text/css">
	.st0{fill:#333333;}
	.st1{fill:#606060;}
</style>
<g id="Group_459" transform="translate(-180 -3680.899)">
	<path id="Path_182" class="st0" d="M249.1,3703.6h17.8c3.6-0.2,7.1,0.9,9.9,3c2.4,1.8,3.7,4.7,3.7,7.7c0,4.6-2.7,7.8-8.1,9.4
		c2.5,0.3,4.9,1.5,6.6,3.4c1.6,1.9,2.5,4.3,2.4,6.7c0.1,3-1.2,5.9-3.6,7.8c-2.4,1.9-5.7,2.9-10,2.9h-18.7L249.1,3703.6L249.1,3703.6
		z M259.1,3711.2v8.9h6.5c1.3,0.1,2.5-0.3,3.5-1.1c0.9-0.8,1.4-2.1,1.3-3.3c0.1-1.3-0.4-2.5-1.3-3.3c-1-0.8-2.2-1.2-3.5-1.1
		L259.1,3711.2z M259.1,3737h7.5c1.2,0,2.5-0.4,3.4-1.2c0.9-0.9,1.4-2.1,1.3-3.4c0.1-1.3-0.4-2.5-1.3-3.4s-2.1-1.3-3.3-1.3h-7.6
		V3737z"/>
	<path id="Path_183" class="st0" d="M293.8,3708.3c-2.3,2.4-6.1,2.4-8.5,0.1c-2.4-2.3-2.4-6.1-0.1-8.5s6.1-2.4,8.5-0.1
		c1.2,1.1,1.8,2.7,1.8,4.3C295.6,3705.7,295,3707.2,293.8,3708.3z M284.8,3744.6V3712h10v32.6H284.8z"/>
	<path id="Path_184" class="st0" d="M380.7,3740.3c-5.7-7-5.7-17,0-24c2.6-3,6.5-4.8,10.5-4.7c3.7-0.2,7.3,1.6,9.5,4.6v-4.3h10v32.6
		h-10v-4.7c-2.1,3.3-5.8,5.2-9.7,5.1C387.1,3745.1,383.4,3743.3,380.7,3740.3z M398.6,3734.3c1.5-1.6,2.3-3.8,2.2-6
		c0.1-2.2-0.6-4.3-2.2-5.9c-2.7-2.7-7.1-2.8-9.8-0.1l-0.1,0.1c-1.5,1.6-2.3,3.8-2.2,6c-0.1,2.2,0.6,4.3,2.2,5.9
		c2.7,2.7,7.1,2.8,9.8,0.1C398.5,3734.3,398.6,3734.3,398.6,3734.3z"/>
	<path id="Path_185" class="st0" d="M429.6,3736.1h3.6v8.5h-5.1c-3,0.2-6-0.7-8.5-2.4c-2-1.6-3-4.4-3-8.3v-13.6h-3v-8.3h3v-7.9h10
		v7.9h6.5v8.3h-6.5v13.6C426.6,3735.4,427.6,3736.1,429.6,3736.1z"/>
	<path id="Path_186" class="st0" d="M438.2,3740.3c-5.7-7-5.7-17,0-24c2.6-3,6.5-4.8,10.5-4.7c3.7-0.2,7.3,1.6,9.5,4.6v-4.3h10v32.6
		h-10v-4.7c-2.1,3.3-5.8,5.2-9.7,5.1C444.6,3745.1,440.8,3743.4,438.2,3740.3z M456.1,3734.3c1.5-1.6,2.3-3.8,2.2-6
		c0.1-2.2-0.6-4.3-2.2-5.9c-2.7-2.7-7.1-2.8-9.8-0.1l-0.1,0.1c-1.5,1.6-2.3,3.8-2.2,6c-0.1,2.2,0.6,4.3,2.2,5.9
		c2.7,2.7,7.1,2.8,9.8,0.1C456,3734.3,456,3734.3,456.1,3734.3z"/>
	<path id="cloud" class="st1" d="M315.6,3733.5c-0.1,0-0.1,0-0.2,0c-2.8,0-5.1-2.3-5.1-5.1s2.3-5.1,5.1-5.2c0.5,0,0.9,0.1,1.4,0.2
		l4.4,1.2v-4.6c0.1-7.4,6.1-13.3,13.5-13.2c4.9,0.1,9.3,2.8,11.6,7l1.5,2.8l2.9-1.1c4.8-1.8,10.2,0.6,12,5.4
		c1.8,4.8-0.6,10.2-5.4,12c-0.8,0.3-1.6,0.5-2.4,0.6h-0.5L315.6,3733.5z"/>
	<path id="Path_188" class="st0" d="M315.9,3737.1L315.9,3737.1c-0.2,0-0.4,0-0.6,0c-4.8,0-8.7-3.9-8.7-8.7s3.9-8.7,8.7-8.7
		c0.8,0,1.5,0.1,2.3,0.3c0-2.2,0.5-4.4,1.3-6.4c-2-1.3-4.3-1.9-6.7-1.9c-4-0.1-7.9,1.7-10.5,4.7c-5.7,7-5.7,17,0,24
		c2.6,3,6.4,4.7,10.4,4.7c3.9,0.1,7.5-1.9,9.7-5.1v4.6c0.2,2.1-0.5,4.2-1.8,5.8c-1.2,1.2-2.8,1.9-4.5,1.8c-3.7,0-6.1-1.2-7-3.7h-9.9
		c0.1,3.7,2,7.1,4.9,9.3c2.9,2,6.9,3,11.8,3c2.6,0,5.1-0.4,7.5-1.3c2-0.7,3.7-2,5.1-3.6c2.6-3.2,3.9-7.3,3.7-11.4v-7.4L315.9,3737.1
		z"/>
	<path id="Path_189" class="st0" d="M369.3,3709.3c-4.2-3.8-9.6-5.7-16.1-5.7h-14.4v0.2c4.5,1.2,8.3,4.2,10.5,8.3
		c6.6-2.5,14.1,0.8,16.6,7.5s-0.8,14.1-7.5,16.6c-1.1,0.4-2.2,0.7-3.3,0.8v0.1h-16.2v7.5h14.4c6.5,0,11.9-1.9,16.1-5.7
		c8.1-7.8,8.4-20.8,0.6-29C369.7,3709.7,369.5,3709.5,369.3,3709.3L369.3,3709.3z"/>
	<g id="Group_458" transform="translate(322.023 3720.98)">
		<path id="Path_190" class="st1" d="M110.2,28.6c0.9,0,1.9,0.2,2.6,0.8c0.7,0.5,1.1,1.3,1.4,2.1l-1.4,0.3c-0.2-0.6-0.5-1.1-1-1.5
			s-1-0.6-1.6-0.6c-0.8,0-1.6,0.4-2.1,1.1c-0.6,0.9-0.9,1.9-0.8,3c-0.1,1.1,0.2,2.1,0.7,3c0.5,0.8,1.3,1.2,2.2,1.1
			c0.7,0,1.4-0.2,1.9-0.6c0.5-0.4,0.7-1,0.7-1.7h1.4c0,1-0.4,1.9-1.1,2.5c-0.8,0.7-1.9,1-3,0.9c-1.2,0-2.3-0.5-3.1-1.5
			c-0.8-1.1-1.2-2.5-1.2-3.9c-0.1-1.4,0.3-2.7,1.2-3.8C107.9,29.1,109,28.6,110.2,28.6z"/>
		<path id="Path_191" class="st1" d="M116.6,27.9h1.3v11h-1.3V27.9z"/>
		<path id="Path_192" class="st1" d="M123.9,31c1,0,1.9,0.3,2.6,1.1c1.3,1.8,1.3,4.2,0,6c-1.5,1.4-3.7,1.4-5.2,0
			c-1.3-1.8-1.3-4.2,0-6C122,31.4,123,31,123.9,31z M126.2,35.1c0-0.8-0.2-1.5-0.6-2.2c-0.4-0.5-1-0.8-1.7-0.8s-1.3,0.3-1.7,0.8
			c-0.4,0.6-0.6,1.4-0.6,2.2s0.2,1.5,0.6,2.2c0.4,0.5,1,0.8,1.7,0.8s1.3-0.3,1.7-0.8C126.1,36.6,126.3,35.8,126.2,35.1z"/>
		<path id="Path_193" class="st1" d="M135.3,37.4c-0.4,1-1.4,1.7-2.6,1.7c-0.8,0-1.5-0.2-2.1-0.7c-0.6-0.6-0.9-1.4-0.8-2.2v-4.9h1.3
			v4.8c0,1.3,0.6,2,1.8,2c0.7,0,1.3-0.3,1.7-0.8c0.5-0.6,0.7-1.3,0.7-2.1v-3.9h1.3V39h-1.3L135.3,37.4L135.3,37.4z"/>
		<path id="Path_194" class="st1" d="M144.8,32.4V28h1.3v11h-1l-0.2-1.3c-0.2,0.5-0.6,0.8-1,1.1c-0.4,0.2-0.9,0.4-1.3,0.4
			c-0.9,0-1.8-0.4-2.5-1.1c-0.7-0.8-1-1.9-1-2.9c-0.1-1.1,0.3-2.1,1-2.9c0.6-0.7,1.5-1.1,2.5-1.1C143.5,31,144.4,31.5,144.8,32.4z
			 M142.6,32.2c-0.6,0-1.2,0.3-1.6,0.8c-0.9,1.3-0.8,3,0,4.2c0.4,0.5,0.9,0.8,1.5,0.8s1.1-0.2,1.5-0.6c0.4-0.4,0.7-1,0.7-1.6v-1.3
			c0-0.6-0.2-1.3-0.6-1.7C143.8,32.4,143.2,32.1,142.6,32.2z"/>
	</g>
</g>
</svg>
